<mxfile host="65bd71144e">
    <diagram id="JrDNaPaNtvMio85XXzXY" name="Page-1">
        <mxGraphModel dx="2144" dy="2118" grid="0" gridSize="10" guides="1" tooltips="1" connect="1" arrows="1" fold="1" page="1" pageScale="1" pageWidth="850" pageHeight="1100" background="#ffffff" math="0" shadow="0">
            <root>
                <mxCell id="0"/>
                <mxCell id="1" parent="0"/>
                <mxCell id="2" value="2" style="rounded=0;whiteSpace=wrap;html=1;fillColor=#FFCFFC;strokeColor=#FF66FF;strokeWidth=3;fontSize=20;fontStyle=1;fontColor=#000000;" vertex="1" parent="1">
                    <mxGeometry x="520" y="105" width="40" height="40" as="geometry"/>
                </mxCell>
                <mxCell id="6" value="1" style="rounded=0;whiteSpace=wrap;html=1;fillColor=#FFFFFF;strokeColor=#FF66FF;strokeWidth=3;fontSize=15;fontStyle=1;fontColor=#FF0000;" vertex="1" parent="1">
                    <mxGeometry x="520" y="145" width="40" height="40" as="geometry"/>
                </mxCell>
                <mxCell id="10" value="5" style="rounded=0;whiteSpace=wrap;html=1;fillColor=#FFFFFF;strokeColor=#FF66FF;strokeWidth=3;fontSize=15;fontStyle=1;fontColor=#FF0000;" vertex="1" parent="1">
                    <mxGeometry x="520" y="265" width="40" height="40" as="geometry"/>
                </mxCell>
                <mxCell id="11" value="3" style="rounded=0;whiteSpace=wrap;html=1;fillColor=#FFFFFF;strokeColor=#FF66FF;strokeWidth=3;fontSize=15;fontStyle=1;fontColor=#FF0000;" vertex="1" parent="1">
                    <mxGeometry x="520" y="225" width="40" height="40" as="geometry"/>
                </mxCell>
                <mxCell id="12" value="0" style="rounded=0;whiteSpace=wrap;html=1;fillColor=#FFFFFF;strokeColor=#FF66FF;strokeWidth=3;fontSize=15;fontStyle=0;fontColor=#000000;" vertex="1" parent="1">
                    <mxGeometry x="520" y="185" width="40" height="40" as="geometry"/>
                </mxCell>
                <mxCell id="13" value="0" style="rounded=0;whiteSpace=wrap;html=1;fillColor=#FFFFFF;strokeColor=#FF66FF;strokeWidth=3;fontSize=15;fontStyle=0;fontColor=#000000;" vertex="1" parent="1">
                    <mxGeometry x="520" y="305" width="40" height="40" as="geometry"/>
                </mxCell>
                <mxCell id="14" value="0" style="rounded=0;whiteSpace=wrap;html=1;fillColor=#FFFFFF;strokeColor=#FF66FF;strokeWidth=3;fontSize=15;fontStyle=0;fontColor=#000000;" vertex="1" parent="1">
                    <mxGeometry x="520" y="345" width="40" height="40" as="geometry"/>
                </mxCell>
                <mxCell id="15" value="0" style="rounded=0;whiteSpace=wrap;html=1;fillColor=#FFFFFF;strokeColor=#FF66FF;strokeWidth=3;fontSize=15;fontStyle=0;fontColor=#000000;" vertex="1" parent="1">
                    <mxGeometry x="520" y="385" width="40" height="40" as="geometry"/>
                </mxCell>
                <mxCell id="16" value="0" style="rounded=0;whiteSpace=wrap;html=1;fillColor=#FFFFFF;strokeColor=#FF66FF;strokeWidth=3;fontSize=15;fontStyle=0;fontColor=#000000;" vertex="1" parent="1">
                    <mxGeometry x="520" y="425" width="40" height="40" as="geometry"/>
                </mxCell>
                <mxCell id="35" value="3" style="rounded=0;whiteSpace=wrap;html=1;fillColor=#FFCFFC;strokeColor=#FF66FF;strokeWidth=3;fontSize=20;fontStyle=1;fontColor=#000000;" vertex="1" parent="1">
                    <mxGeometry x="560" y="105" width="40" height="40" as="geometry"/>
                </mxCell>
                <mxCell id="36" value="12" style="rounded=0;whiteSpace=wrap;html=1;fillColor=#FFFFFF;strokeColor=#FF66FF;strokeWidth=3;fontSize=15;fontStyle=1;fontColor=#FF0000;" vertex="1" parent="1">
                    <mxGeometry x="560" y="145" width="40" height="40" as="geometry"/>
                </mxCell>
                <mxCell id="37" value="8" style="rounded=0;whiteSpace=wrap;html=1;fillColor=#FFFFFF;strokeColor=#FF66FF;strokeWidth=3;fontSize=15;fontStyle=1;fontColor=#FF0000;" vertex="1" parent="1">
                    <mxGeometry x="560" y="265" width="40" height="40" as="geometry"/>
                </mxCell>
                <mxCell id="38" value="0" style="rounded=0;whiteSpace=wrap;html=1;fillColor=#FFFFFF;strokeColor=#FF66FF;strokeWidth=3;fontSize=15;fontStyle=0;fontColor=#000000;" vertex="1" parent="1">
                    <mxGeometry x="560" y="225" width="40" height="40" as="geometry"/>
                </mxCell>
                <mxCell id="39" value="3" style="rounded=0;whiteSpace=wrap;html=1;fillColor=#FFFFFF;strokeColor=#FF66FF;strokeWidth=3;fontSize=15;fontStyle=1;fontColor=#FF0000;" vertex="1" parent="1">
                    <mxGeometry x="560" y="185" width="40" height="40" as="geometry"/>
                </mxCell>
                <mxCell id="40" value="0" style="rounded=0;whiteSpace=wrap;html=1;fillColor=#FFFFFF;strokeColor=#FF66FF;strokeWidth=3;fontSize=15;fontStyle=0;fontColor=#000000;" vertex="1" parent="1">
                    <mxGeometry x="560" y="305" width="40" height="40" as="geometry"/>
                </mxCell>
                <mxCell id="41" value="0" style="rounded=0;whiteSpace=wrap;html=1;fillColor=#FFFFFF;strokeColor=#FF66FF;strokeWidth=3;fontSize=15;fontStyle=0;fontColor=#000000;" vertex="1" parent="1">
                    <mxGeometry x="560" y="345" width="40" height="40" as="geometry"/>
                </mxCell>
                <mxCell id="42" value="0" style="rounded=0;whiteSpace=wrap;html=1;fillColor=#FFFFFF;strokeColor=#FF66FF;strokeWidth=3;fontSize=15;fontStyle=0;fontColor=#000000;" vertex="1" parent="1">
                    <mxGeometry x="560" y="385" width="40" height="40" as="geometry"/>
                </mxCell>
                <mxCell id="43" value="0" style="rounded=0;whiteSpace=wrap;html=1;fillColor=#FFFFFF;strokeColor=#FF66FF;strokeWidth=3;fontSize=15;fontStyle=0;fontColor=#000000;" vertex="1" parent="1">
                    <mxGeometry x="560" y="425" width="40" height="40" as="geometry"/>
                </mxCell>
                <mxCell id="44" value="4" style="rounded=0;whiteSpace=wrap;html=1;fillColor=#FFCFFC;strokeColor=#FF66FF;strokeWidth=3;fontSize=20;fontStyle=1;fontColor=#000000;" vertex="1" parent="1">
                    <mxGeometry x="600" y="105" width="40" height="40" as="geometry"/>
                </mxCell>
                <mxCell id="45" value="0" style="rounded=0;whiteSpace=wrap;html=1;fillColor=#FFFFFF;strokeColor=#FF66FF;strokeWidth=3;fontSize=15;fontStyle=0;fontColor=#000000;" vertex="1" parent="1">
                    <mxGeometry x="600" y="145" width="40" height="40" as="geometry"/>
                </mxCell>
                <mxCell id="46" value="0" style="rounded=0;whiteSpace=wrap;html=1;fillColor=#FFFFFF;strokeColor=#FF66FF;strokeWidth=3;fontSize=15;fontStyle=0;fontColor=#000000;" vertex="1" parent="1">
                    <mxGeometry x="600" y="265" width="40" height="40" as="geometry"/>
                </mxCell>
                <mxCell id="47" value="8" style="rounded=0;whiteSpace=wrap;html=1;fillColor=#FFFFFF;strokeColor=#FF66FF;strokeWidth=3;fontSize=15;fontStyle=1;fontColor=#FF0000;" vertex="1" parent="1">
                    <mxGeometry x="600" y="225" width="40" height="40" as="geometry"/>
                </mxCell>
                <mxCell id="48" value="5" style="rounded=0;whiteSpace=wrap;html=1;fillColor=#FFFFFF;strokeColor=#FF66FF;strokeWidth=3;fontSize=15;fontStyle=1;fontColor=#FF0000;" vertex="1" parent="1">
                    <mxGeometry x="600" y="185" width="40" height="40" as="geometry"/>
                </mxCell>
                <mxCell id="49" value="19" style="rounded=0;whiteSpace=wrap;html=1;fillColor=#FFFFFF;strokeColor=#FF66FF;strokeWidth=3;fontSize=15;fontStyle=1;fontColor=#FF0000;" vertex="1" parent="1">
                    <mxGeometry x="600" y="305" width="40" height="40" as="geometry"/>
                </mxCell>
                <mxCell id="50" value="1" style="rounded=0;whiteSpace=wrap;html=1;fillColor=#FFFFFF;strokeColor=#FF66FF;strokeWidth=3;fontSize=15;fontStyle=1;fontColor=#FF0000;" vertex="1" parent="1">
                    <mxGeometry x="600" y="345" width="40" height="40" as="geometry"/>
                </mxCell>
                <mxCell id="51" value="0" style="rounded=0;whiteSpace=wrap;html=1;fillColor=#FFFFFF;strokeColor=#FF66FF;strokeWidth=3;fontSize=15;fontStyle=0;fontColor=#000000;" vertex="1" parent="1">
                    <mxGeometry x="600" y="385" width="40" height="40" as="geometry"/>
                </mxCell>
                <mxCell id="52" value="0" style="rounded=0;whiteSpace=wrap;html=1;fillColor=#FFFFFF;strokeColor=#FF66FF;strokeWidth=3;fontSize=15;fontStyle=0;fontColor=#000000;" vertex="1" parent="1">
                    <mxGeometry x="600" y="425" width="40" height="40" as="geometry"/>
                </mxCell>
                <mxCell id="53" value="5" style="rounded=0;whiteSpace=wrap;html=1;fillColor=#FFCFFC;strokeColor=#FF66FF;strokeWidth=3;fontSize=20;fontStyle=1;fontColor=#000000;" vertex="1" parent="1">
                    <mxGeometry x="640" y="105" width="40" height="40" as="geometry"/>
                </mxCell>
                <mxCell id="54" value="0" style="rounded=0;whiteSpace=wrap;html=1;fillColor=#FFFFFF;strokeColor=#FF66FF;strokeWidth=3;fontSize=15;fontStyle=0;fontColor=#000000;" vertex="1" parent="1">
                    <mxGeometry x="640" y="145" width="40" height="40" as="geometry"/>
                </mxCell>
                <mxCell id="55" value="19" style="rounded=0;whiteSpace=wrap;html=1;fillColor=#FFFFFF;strokeColor=#FF66FF;strokeWidth=3;fontSize=15;fontStyle=1;fontColor=#FF0000;" vertex="1" parent="1">
                    <mxGeometry x="640" y="265" width="40" height="40" as="geometry"/>
                </mxCell>
                <mxCell id="56" value="0" style="rounded=0;whiteSpace=wrap;html=1;fillColor=#FFFFFF;strokeColor=#FF66FF;strokeWidth=3;fontSize=15;fontStyle=0;fontColor=#000000;" vertex="1" parent="1">
                    <mxGeometry x="640" y="225" width="40" height="40" as="geometry"/>
                </mxCell>
                <mxCell id="57" value="0" style="rounded=0;whiteSpace=wrap;html=1;fillColor=#FFFFFF;strokeColor=#FF66FF;strokeWidth=3;fontSize=15;fontStyle=0;fontColor=#000000;" vertex="1" parent="1">
                    <mxGeometry x="640" y="185" width="40" height="40" as="geometry"/>
                </mxCell>
                <mxCell id="58" value="0" style="rounded=0;whiteSpace=wrap;html=1;fillColor=#FFFFFF;strokeColor=#FF66FF;strokeWidth=3;fontSize=15;fontStyle=0;fontColor=#000000;" vertex="1" parent="1">
                    <mxGeometry x="640" y="305" width="40" height="40" as="geometry"/>
                </mxCell>
                <mxCell id="59" value="0" style="rounded=0;whiteSpace=wrap;html=1;fillColor=#FFFFFF;strokeColor=#FF66FF;strokeWidth=3;fontSize=15;fontStyle=0;fontColor=#000000;" vertex="1" parent="1">
                    <mxGeometry x="640" y="345" width="40" height="40" as="geometry"/>
                </mxCell>
                <mxCell id="60" value="0" style="rounded=0;whiteSpace=wrap;html=1;fillColor=#FFFFFF;strokeColor=#FF66FF;strokeWidth=3;fontSize=15;fontStyle=0;fontColor=#000000;" vertex="1" parent="1">
                    <mxGeometry x="640" y="385" width="40" height="40" as="geometry"/>
                </mxCell>
                <mxCell id="61" value="0" style="rounded=0;whiteSpace=wrap;html=1;fillColor=#FFFFFF;strokeColor=#FF66FF;strokeWidth=3;fontSize=15;fontStyle=0;fontColor=#000000;" vertex="1" parent="1">
                    <mxGeometry x="640" y="425" width="40" height="40" as="geometry"/>
                </mxCell>
                <mxCell id="62" value="6" style="rounded=0;whiteSpace=wrap;html=1;fillColor=#FFCFFC;strokeColor=#FF66FF;strokeWidth=3;fontSize=20;fontStyle=1;fontColor=#000000;" vertex="1" parent="1">
                    <mxGeometry x="680" y="105" width="40" height="40" as="geometry"/>
                </mxCell>
                <mxCell id="63" value="0" style="rounded=0;whiteSpace=wrap;html=1;fillColor=#FFFFFF;strokeColor=#FF66FF;strokeWidth=3;fontSize=15;fontStyle=0;fontColor=#000000;" vertex="1" parent="1">
                    <mxGeometry x="680" y="145" width="40" height="40" as="geometry"/>
                </mxCell>
                <mxCell id="64" value="1" style="rounded=0;whiteSpace=wrap;html=1;fillColor=#FFFFFF;strokeColor=#FF66FF;strokeWidth=3;fontSize=15;fontStyle=1;fontColor=#FF0000;" vertex="1" parent="1">
                    <mxGeometry x="680" y="265" width="40" height="40" as="geometry"/>
                </mxCell>
                <mxCell id="65" value="0" style="rounded=0;whiteSpace=wrap;html=1;fillColor=#FFFFFF;strokeColor=#FF66FF;strokeWidth=3;fontSize=15;fontStyle=0;fontColor=#000000;" vertex="1" parent="1">
                    <mxGeometry x="680" y="225" width="40" height="40" as="geometry"/>
                </mxCell>
                <mxCell id="66" value="0" style="rounded=0;whiteSpace=wrap;html=1;fillColor=#FFFFFF;strokeColor=#FF66FF;strokeWidth=3;fontSize=15;fontStyle=0;fontColor=#000000;" vertex="1" parent="1">
                    <mxGeometry x="680" y="185" width="40" height="40" as="geometry"/>
                </mxCell>
                <mxCell id="67" value="0" style="rounded=0;whiteSpace=wrap;html=1;fillColor=#FFFFFF;strokeColor=#FF66FF;strokeWidth=3;fontSize=15;fontStyle=0;fontColor=#000000;" vertex="1" parent="1">
                    <mxGeometry x="680" y="305" width="40" height="40" as="geometry"/>
                </mxCell>
                <mxCell id="68" value="6" style="rounded=0;whiteSpace=wrap;html=1;fillColor=#FFFFFF;strokeColor=#FF66FF;strokeWidth=3;fontSize=15;fontStyle=1;fontColor=#FF0000;" vertex="1" parent="1">
                    <mxGeometry x="680" y="345" width="40" height="40" as="geometry"/>
                </mxCell>
                <mxCell id="69" value="7" style="rounded=0;whiteSpace=wrap;html=1;fillColor=#FFFFFF;strokeColor=#FF66FF;strokeWidth=3;fontSize=15;fontStyle=1;fontColor=#FF0000;" vertex="1" parent="1">
                    <mxGeometry x="680" y="385" width="40" height="40" as="geometry"/>
                </mxCell>
                <mxCell id="70" value="4" style="rounded=0;whiteSpace=wrap;html=1;fillColor=#FFFFFF;strokeColor=#FF66FF;strokeWidth=3;fontSize=15;fontStyle=1;fontColor=#FF0000;" vertex="1" parent="1">
                    <mxGeometry x="680" y="425" width="40" height="40" as="geometry"/>
                </mxCell>
                <mxCell id="71" value="7" style="rounded=0;whiteSpace=wrap;html=1;fillColor=#FFCFFC;strokeColor=#FF66FF;strokeWidth=3;fontSize=20;fontStyle=1;fontColor=#000000;" vertex="1" parent="1">
                    <mxGeometry x="720" y="105" width="40" height="40" as="geometry"/>
                </mxCell>
                <mxCell id="72" value="4" style="rounded=0;whiteSpace=wrap;html=1;fillColor=#FFFFFF;strokeColor=#FF66FF;strokeWidth=3;fontSize=15;fontStyle=1;fontColor=#FF0000;" vertex="1" parent="1">
                    <mxGeometry x="720" y="145" width="40" height="40" as="geometry"/>
                </mxCell>
                <mxCell id="73" value="0" style="rounded=0;whiteSpace=wrap;html=1;fillColor=#FFFFFF;strokeColor=#FF66FF;strokeWidth=3;fontSize=15;fontStyle=0;fontColor=#000000;" vertex="1" parent="1">
                    <mxGeometry x="720" y="265" width="40" height="40" as="geometry"/>
                </mxCell>
                <mxCell id="74" value="0" style="rounded=0;whiteSpace=wrap;html=1;fillColor=#FFFFFF;strokeColor=#FF66FF;strokeWidth=3;fontSize=15;fontStyle=0;fontColor=#000000;" vertex="1" parent="1">
                    <mxGeometry x="720" y="225" width="40" height="40" as="geometry"/>
                </mxCell>
                <mxCell id="75" value="0" style="rounded=0;whiteSpace=wrap;html=1;fillColor=#FFFFFF;strokeColor=#FF66FF;strokeWidth=3;fontSize=15;fontStyle=0;fontColor=#000000;" vertex="1" parent="1">
                    <mxGeometry x="720" y="185" width="40" height="40" as="geometry"/>
                </mxCell>
                <mxCell id="76" value="0" style="rounded=0;whiteSpace=wrap;html=1;fillColor=#FFFFFF;strokeColor=#FF66FF;strokeWidth=3;fontSize=15;fontStyle=0;fontColor=#000000;" vertex="1" parent="1">
                    <mxGeometry x="720" y="305" width="40" height="40" as="geometry"/>
                </mxCell>
                <mxCell id="77" value="7" style="rounded=0;whiteSpace=wrap;html=1;fillColor=#FFFFFF;strokeColor=#FF66FF;strokeWidth=3;fontSize=15;fontStyle=1;fontColor=#FF0000;" vertex="1" parent="1">
                    <mxGeometry x="720" y="345" width="40" height="40" as="geometry"/>
                </mxCell>
                <mxCell id="78" value="0" style="rounded=0;whiteSpace=wrap;html=1;fillColor=#FFFFFF;strokeColor=#FF66FF;strokeWidth=3;fontSize=15;fontStyle=0;fontColor=#000000;" vertex="1" parent="1">
                    <mxGeometry x="720" y="385" width="40" height="40" as="geometry"/>
                </mxCell>
                <mxCell id="79" value="0" style="rounded=0;whiteSpace=wrap;html=1;fillColor=#FFFFFF;strokeColor=#FF66FF;strokeWidth=3;fontSize=15;fontStyle=0;fontColor=#000000;" vertex="1" parent="1">
                    <mxGeometry x="720" y="425" width="40" height="40" as="geometry"/>
                </mxCell>
                <mxCell id="80" value="8" style="rounded=0;whiteSpace=wrap;html=1;fillColor=#FFCFFC;strokeColor=#FF66FF;strokeWidth=3;fontSize=20;fontStyle=1;fontColor=#000000;" vertex="1" parent="1">
                    <mxGeometry x="760" y="105" width="40" height="40" as="geometry"/>
                </mxCell>
                <mxCell id="81" value="0" style="rounded=0;whiteSpace=wrap;html=1;fillColor=#FFFFFF;strokeColor=#FF66FF;strokeWidth=3;fontSize=15;fontStyle=0;fontColor=#000000;" vertex="1" parent="1">
                    <mxGeometry x="760" y="145" width="40" height="40" as="geometry"/>
                </mxCell>
                <mxCell id="82" value="0" style="rounded=0;whiteSpace=wrap;html=1;fillColor=#FFFFFF;strokeColor=#FF66FF;strokeWidth=3;fontSize=15;fontStyle=0;fontColor=#000000;" vertex="1" parent="1">
                    <mxGeometry x="760" y="265" width="40" height="40" as="geometry"/>
                </mxCell>
                <mxCell id="83" value="0" style="rounded=0;whiteSpace=wrap;html=1;fillColor=#FFFFFF;strokeColor=#FF66FF;strokeWidth=3;fontSize=15;fontStyle=0;fontColor=#000000;" vertex="1" parent="1">
                    <mxGeometry x="760" y="225" width="40" height="40" as="geometry"/>
                </mxCell>
                <mxCell id="84" value="0" style="rounded=0;whiteSpace=wrap;html=1;fillColor=#FFFFFF;strokeColor=#FF66FF;strokeWidth=3;fontSize=15;fontStyle=0;fontColor=#000000;" vertex="1" parent="1">
                    <mxGeometry x="760" y="185" width="40" height="40" as="geometry"/>
                </mxCell>
                <mxCell id="85" value="0" style="rounded=0;whiteSpace=wrap;html=1;fillColor=#FFFFFF;strokeColor=#FF66FF;strokeWidth=3;fontSize=15;fontStyle=0;fontColor=#000000;" vertex="1" parent="1">
                    <mxGeometry x="760" y="305" width="40" height="40" as="geometry"/>
                </mxCell>
                <mxCell id="86" value="4" style="rounded=0;whiteSpace=wrap;html=1;fillColor=#FFFFFF;strokeColor=#FF66FF;strokeWidth=3;fontSize=15;fontStyle=1;fontColor=#FF0000;" vertex="1" parent="1">
                    <mxGeometry x="760" y="345" width="40" height="40" as="geometry"/>
                </mxCell>
                <mxCell id="87" value="0" style="rounded=0;whiteSpace=wrap;html=1;fillColor=#FFFFFF;strokeColor=#FF66FF;strokeWidth=3;fontSize=15;fontStyle=0;fontColor=#000000;" vertex="1" parent="1">
                    <mxGeometry x="760" y="385" width="40" height="40" as="geometry"/>
                </mxCell>
                <mxCell id="88" value="0" style="rounded=0;whiteSpace=wrap;html=1;fillColor=#FFFFFF;strokeColor=#FF66FF;strokeWidth=3;fontSize=15;fontStyle=0;fontColor=#000000;" vertex="1" parent="1">
                    <mxGeometry x="760" y="425" width="40" height="40" as="geometry"/>
                </mxCell>
                <mxCell id="89" value="1" style="rounded=0;whiteSpace=wrap;html=1;fillColor=#FFCFFC;strokeColor=#FF66FF;strokeWidth=3;fontSize=20;fontStyle=1;fontColor=#000000;" vertex="1" parent="1">
                    <mxGeometry x="480" y="105" width="40" height="40" as="geometry"/>
                </mxCell>
                <mxCell id="90" value="0" style="rounded=0;whiteSpace=wrap;html=1;fillColor=#FFFFFF;strokeColor=#FF66FF;strokeWidth=3;fontSize=15;fontStyle=0;fontColor=#000000;" vertex="1" parent="1">
                    <mxGeometry x="480" y="145" width="40" height="40" as="geometry"/>
                </mxCell>
                <mxCell id="91" value="0" style="rounded=0;whiteSpace=wrap;html=1;fillColor=#FFFFFF;strokeColor=#FF66FF;strokeWidth=3;fontSize=15;fontStyle=0;fontColor=#000000;" vertex="1" parent="1">
                    <mxGeometry x="480" y="265" width="40" height="40" as="geometry"/>
                </mxCell>
                <mxCell id="92" value="12" style="rounded=0;whiteSpace=wrap;html=1;fillColor=#FFFFFF;strokeColor=#FF66FF;strokeWidth=3;fontSize=15;fontStyle=1;fontColor=#FF0000;" vertex="1" parent="1">
                    <mxGeometry x="480" y="225" width="40" height="40" as="geometry"/>
                </mxCell>
                <mxCell id="93" value="1" style="rounded=0;whiteSpace=wrap;html=1;fillColor=#FFFFFF;strokeColor=#FF66FF;strokeWidth=3;fontSize=15;fontStyle=1;fontColor=#FF0000;" vertex="1" parent="1">
                    <mxGeometry x="480" y="185" width="40" height="40" as="geometry"/>
                </mxCell>
                <mxCell id="94" value="0" style="rounded=0;whiteSpace=wrap;html=1;fillColor=#FFFFFF;strokeColor=#FF66FF;strokeWidth=3;fontSize=15;fontStyle=0;fontColor=#000000;" vertex="1" parent="1">
                    <mxGeometry x="480" y="305" width="40" height="40" as="geometry"/>
                </mxCell>
                <mxCell id="95" value="0" style="rounded=0;whiteSpace=wrap;html=1;fillColor=#FFFFFF;strokeColor=#FF66FF;strokeWidth=3;fontSize=15;fontStyle=0;fontColor=#000000;" vertex="1" parent="1">
                    <mxGeometry x="480" y="345" width="40" height="40" as="geometry"/>
                </mxCell>
                <mxCell id="96" value="4" style="rounded=0;whiteSpace=wrap;html=1;fillColor=#FFFFFF;strokeColor=#FF66FF;strokeWidth=3;fontSize=15;fontStyle=1;fontColor=#FF0000;" vertex="1" parent="1">
                    <mxGeometry x="480" y="385" width="40" height="40" as="geometry"/>
                </mxCell>
                <mxCell id="97" value="0" style="rounded=0;whiteSpace=wrap;html=1;fillColor=#FFFFFF;strokeColor=#FF66FF;strokeWidth=3;fontSize=15;fontStyle=0;fontColor=#000000;" vertex="1" parent="1">
                    <mxGeometry x="480" y="425" width="40" height="40" as="geometry"/>
                </mxCell>
                <mxCell id="98" value="" style="rounded=0;whiteSpace=wrap;html=1;fillColor=#FFCFFC;strokeColor=#FF66FF;strokeWidth=3;fontSize=20;fontStyle=1;fontColor=#000000;" vertex="1" parent="1">
                    <mxGeometry x="440" y="105" width="40" height="40" as="geometry"/>
                </mxCell>
                <mxCell id="99" value="1" style="rounded=0;whiteSpace=wrap;html=1;fillColor=#FFCFFC;strokeColor=#FF66FF;strokeWidth=3;fontSize=20;fontStyle=1;fontColor=#000000;" vertex="1" parent="1">
                    <mxGeometry x="440" y="145" width="40" height="40" as="geometry"/>
                </mxCell>
                <mxCell id="100" value="4" style="rounded=0;whiteSpace=wrap;html=1;fillColor=#FFCFFC;strokeColor=#FF66FF;strokeWidth=3;fontSize=20;fontStyle=1;fontColor=#000000;" vertex="1" parent="1">
                    <mxGeometry x="440" y="265" width="40" height="40" as="geometry"/>
                </mxCell>
                <mxCell id="101" value="3" style="rounded=0;whiteSpace=wrap;html=1;fillColor=#FFCFFC;strokeColor=#FF66FF;strokeWidth=3;fontSize=20;fontStyle=1;fontColor=#000000;" vertex="1" parent="1">
                    <mxGeometry x="440" y="225" width="40" height="40" as="geometry"/>
                </mxCell>
                <mxCell id="102" value="2" style="rounded=0;whiteSpace=wrap;html=1;fillColor=#FFCFFC;strokeColor=#FF66FF;strokeWidth=3;fontSize=20;fontStyle=1;fontColor=#000000;" vertex="1" parent="1">
                    <mxGeometry x="440" y="185" width="40" height="40" as="geometry"/>
                </mxCell>
                <mxCell id="103" value="5" style="rounded=0;whiteSpace=wrap;html=1;fillColor=#FFCFFC;strokeColor=#FF66FF;strokeWidth=3;fontSize=20;fontStyle=1;fontColor=#000000;" vertex="1" parent="1">
                    <mxGeometry x="440" y="305" width="40" height="40" as="geometry"/>
                </mxCell>
                <mxCell id="104" value="6" style="rounded=0;whiteSpace=wrap;html=1;fillColor=#FFCFFC;strokeColor=#FF66FF;strokeWidth=3;fontSize=20;fontStyle=1;fontColor=#000000;" vertex="1" parent="1">
                    <mxGeometry x="440" y="345" width="40" height="40" as="geometry"/>
                </mxCell>
                <mxCell id="105" value="7" style="rounded=0;whiteSpace=wrap;html=1;fillColor=#FFCFFC;strokeColor=#FF66FF;strokeWidth=3;fontSize=20;fontStyle=1;fontColor=#000000;" vertex="1" parent="1">
                    <mxGeometry x="440" y="385" width="40" height="40" as="geometry"/>
                </mxCell>
                <mxCell id="106" value="8" style="rounded=0;whiteSpace=wrap;html=1;fillColor=#FFCFFC;strokeColor=#FF66FF;strokeWidth=3;fontSize=20;fontStyle=1;fontColor=#000000;" vertex="1" parent="1">
                    <mxGeometry x="440" y="425" width="40" height="40" as="geometry"/>
                </mxCell>
                <mxCell id="110" value="1" style="ellipse;whiteSpace=wrap;html=1;aspect=fixed;labelBackgroundColor=none;strokeColor=#FF66FF;strokeWidth=3;fontSize=17;fontColor=#000000;fillColor=#FFCFFC;fontStyle=1" vertex="1" parent="1">
                    <mxGeometry x="-40" y="105" width="50" height="50" as="geometry"/>
                </mxCell>
                <mxCell id="111" value="3" style="ellipse;whiteSpace=wrap;html=1;aspect=fixed;labelBackgroundColor=none;strokeColor=#FF66FF;strokeWidth=3;fontSize=17;fontColor=#000000;fillColor=#FFCFFC;fontStyle=1" vertex="1" parent="1">
                    <mxGeometry x="-100" y="200" width="50" height="50" as="geometry"/>
                </mxCell>
                <mxCell id="112" value="2" style="ellipse;whiteSpace=wrap;html=1;aspect=fixed;labelBackgroundColor=none;strokeColor=#FF66FF;strokeWidth=3;fontSize=17;fontColor=#000000;fillColor=#FFCFFC;fontStyle=1" vertex="1" parent="1">
                    <mxGeometry x="20" y="200" width="50" height="50" as="geometry"/>
                </mxCell>
                <mxCell id="113" value="4" style="ellipse;whiteSpace=wrap;html=1;aspect=fixed;labelBackgroundColor=none;strokeColor=#FF66FF;strokeWidth=3;fontSize=17;fontColor=#000000;fillColor=#FFCFFC;fontStyle=1" vertex="1" parent="1">
                    <mxGeometry x="-40" y="300" width="50" height="50" as="geometry"/>
                </mxCell>
                <mxCell id="114" value="5" style="ellipse;whiteSpace=wrap;html=1;aspect=fixed;labelBackgroundColor=none;strokeColor=#FF66FF;strokeWidth=3;fontSize=17;fontColor=#000000;fillColor=#FFCFFC;fontStyle=1" vertex="1" parent="1">
                    <mxGeometry x="-110" y="400" width="50" height="50" as="geometry"/>
                </mxCell>
                <mxCell id="115" value="6" style="ellipse;whiteSpace=wrap;html=1;aspect=fixed;labelBackgroundColor=none;strokeColor=#FF66FF;strokeWidth=3;fontSize=17;fontColor=#000000;fillColor=#FFCFFC;fontStyle=1" vertex="1" parent="1">
                    <mxGeometry x="110" y="300" width="50" height="50" as="geometry"/>
                </mxCell>
                <mxCell id="116" value="7" style="ellipse;whiteSpace=wrap;html=1;aspect=fixed;labelBackgroundColor=none;strokeColor=#FF66FF;strokeWidth=3;fontSize=17;fontColor=#000000;fillColor=#FFCFFC;fontStyle=1" vertex="1" parent="1">
                    <mxGeometry x="110" y="105" width="50" height="50" as="geometry"/>
                </mxCell>
                <mxCell id="117" value="8" style="ellipse;whiteSpace=wrap;html=1;aspect=fixed;labelBackgroundColor=none;strokeColor=#FF66FF;strokeWidth=3;fontSize=17;fontColor=#000000;fillColor=#FFCFFC;fontStyle=1" vertex="1" parent="1">
                    <mxGeometry x="110" y="410" width="50" height="50" as="geometry"/>
                </mxCell>
                <mxCell id="119" value="" style="endArrow=none;html=1;fontSize=17;fontColor=#000000;entryX=0;entryY=1;entryDx=0;entryDy=0;exitX=0.688;exitY=0.061;exitDx=0;exitDy=0;exitPerimeter=0;strokeColor=#FF66FF;strokeWidth=3;" edge="1" parent="1" source="111" target="110">
                    <mxGeometry width="50" height="50" relative="1" as="geometry">
                        <mxPoint x="-130" y="190" as="sourcePoint"/>
                        <mxPoint x="-80" y="140" as="targetPoint"/>
                    </mxGeometry>
                </mxCell>
                <mxCell id="120" value="" style="endArrow=none;html=1;fontSize=17;fontColor=#000000;strokeColor=#FF66FF;strokeWidth=3;entryX=1;entryY=1;entryDx=0;entryDy=0;exitX=0.26;exitY=0.035;exitDx=0;exitDy=0;exitPerimeter=0;" edge="1" parent="1" source="112" target="110">
                    <mxGeometry width="50" height="50" relative="1" as="geometry">
                        <mxPoint x="30" y="190" as="sourcePoint"/>
                        <mxPoint x="-23" y="158" as="targetPoint"/>
                    </mxGeometry>
                </mxCell>
                <mxCell id="121" value="" style="endArrow=none;html=1;fontSize=17;fontColor=#000000;entryX=0;entryY=0.5;entryDx=0;entryDy=0;exitX=1;exitY=0.5;exitDx=0;exitDy=0;strokeColor=#FF66FF;strokeWidth=3;" edge="1" parent="1" source="111" target="112">
                    <mxGeometry width="50" height="50" relative="1" as="geometry">
                        <mxPoint x="-45.59999999999991" y="223.05000000000007" as="sourcePoint"/>
                        <mxPoint x="-12.677669529663717" y="167.67766952966383" as="targetPoint"/>
                    </mxGeometry>
                </mxCell>
                <mxCell id="122" value="" style="endArrow=none;html=1;fontSize=17;fontColor=#000000;entryX=0.5;entryY=1;entryDx=0;entryDy=0;strokeColor=#FF66FF;strokeWidth=3;exitX=0;exitY=0;exitDx=0;exitDy=0;" edge="1" parent="1" source="113" target="111">
                    <mxGeometry width="50" height="50" relative="1" as="geometry">
                        <mxPoint x="-20" y="280" as="sourcePoint"/>
                        <mxPoint x="-2.677669529663717" y="177.67766952966383" as="targetPoint"/>
                    </mxGeometry>
                </mxCell>
                <mxCell id="123" value="" style="endArrow=none;html=1;fontSize=17;fontColor=#000000;entryX=0.5;entryY=1;entryDx=0;entryDy=0;exitX=1;exitY=0;exitDx=0;exitDy=0;strokeColor=#FF66FF;strokeWidth=3;" edge="1" parent="1" source="113" target="112">
                    <mxGeometry width="50" height="50" relative="1" as="geometry">
                        <mxPoint x="-25.59999999999991" y="243.05000000000007" as="sourcePoint"/>
                        <mxPoint x="7.322330470336283" y="187.67766952966383" as="targetPoint"/>
                    </mxGeometry>
                </mxCell>
                <mxCell id="124" value="" style="endArrow=none;html=1;fontSize=17;fontColor=#000000;entryX=0;entryY=1;entryDx=0;entryDy=0;strokeColor=#FF66FF;strokeWidth=3;exitX=0.746;exitY=0.051;exitDx=0;exitDy=0;exitPerimeter=0;" edge="1" parent="1" source="114" target="113">
                    <mxGeometry width="50" height="50" relative="1" as="geometry">
                        <mxPoint x="-70" y="390" as="sourcePoint"/>
                        <mxPoint x="-37.077669529663716" y="342.3176695296638" as="targetPoint"/>
                    </mxGeometry>
                </mxCell>
                <mxCell id="125" value="" style="endArrow=none;html=1;fontSize=17;fontColor=#000000;exitX=0;exitY=0.5;exitDx=0;exitDy=0;strokeColor=#FF66FF;strokeWidth=3;entryX=1;entryY=0.5;entryDx=0;entryDy=0;" edge="1" parent="1" source="115" target="113">
                    <mxGeometry width="50" height="50" relative="1" as="geometry">
                        <mxPoint x="-5.599999999999909" y="263.05000000000007" as="sourcePoint"/>
                        <mxPoint x="20" y="330" as="targetPoint"/>
                    </mxGeometry>
                </mxCell>
                <mxCell id="126" value="" style="endArrow=none;html=1;fontSize=17;fontColor=#000000;entryX=1;entryY=0.5;entryDx=0;entryDy=0;exitX=0;exitY=0.5;exitDx=0;exitDy=0;strokeColor=#FF66FF;strokeWidth=3;" edge="1" parent="1" source="116" target="110">
                    <mxGeometry width="50" height="50" relative="1" as="geometry">
                        <mxPoint x="4.400000000000091" y="273.05000000000007" as="sourcePoint"/>
                        <mxPoint x="37.32233047033628" y="217.67766952966383" as="targetPoint"/>
                    </mxGeometry>
                </mxCell>
                <mxCell id="127" value="" style="endArrow=none;html=1;fontSize=17;fontColor=#000000;entryX=0.5;entryY=1;entryDx=0;entryDy=0;strokeColor=#FF66FF;strokeWidth=3;" edge="1" parent="1" source="115" target="116">
                    <mxGeometry width="50" height="50" relative="1" as="geometry">
                        <mxPoint x="14.400000000000091" y="283.05000000000007" as="sourcePoint"/>
                        <mxPoint x="47.32233047033628" y="227.67766952966383" as="targetPoint"/>
                    </mxGeometry>
                </mxCell>
                <mxCell id="128" value="" style="endArrow=none;html=1;fontSize=17;fontColor=#000000;entryX=0.5;entryY=1;entryDx=0;entryDy=0;exitX=0.5;exitY=0;exitDx=0;exitDy=0;strokeColor=#FF66FF;strokeWidth=3;" edge="1" parent="1" source="117" target="115">
                    <mxGeometry width="50" height="50" relative="1" as="geometry">
                        <mxPoint x="24.40000000000009" y="293.05000000000007" as="sourcePoint"/>
                        <mxPoint x="57.32233047033628" y="237.67766952966383" as="targetPoint"/>
                    </mxGeometry>
                </mxCell>
                <mxCell id="134" value="" style="endArrow=none;html=1;strokeColor=#FF66FF;strokeWidth=3;fontSize=17;fontColor=#000000;curved=1;exitX=0.989;exitY=0.651;exitDx=0;exitDy=0;exitPerimeter=0;entryX=1.001;entryY=0.332;entryDx=0;entryDy=0;entryPerimeter=0;" edge="1" parent="1" source="115" target="115">
                    <mxGeometry width="50" height="50" relative="1" as="geometry">
                        <mxPoint x="160" y="340" as="sourcePoint"/>
                        <mxPoint x="210" y="290" as="targetPoint"/>
                        <Array as="points">
                            <mxPoint x="180" y="340"/>
                            <mxPoint x="200" y="330"/>
                            <mxPoint x="190" y="300"/>
                        </Array>
                    </mxGeometry>
                </mxCell>
                <mxCell id="135" value="" style="shape=flexArrow;endArrow=classic;html=1;strokeColor=#FF66FF;strokeWidth=3;fontSize=17;fontColor=#000000;curved=1;fillColor=#FF66FF;" edge="1" parent="1">
                    <mxGeometry width="50" height="50" relative="1" as="geometry">
                        <mxPoint x="240" y="275" as="sourcePoint"/>
                        <mxPoint x="390" y="275" as="targetPoint"/>
                    </mxGeometry>
                </mxCell>
                <mxCell id="137" value="12" style="text;html=1;strokeColor=none;fillColor=none;align=center;verticalAlign=middle;whiteSpace=wrap;rounded=0;labelBackgroundColor=none;strokeWidth=3;fontSize=15;fontColor=#000000;" vertex="1" parent="1">
                    <mxGeometry x="-97" y="156" width="60" height="30" as="geometry"/>
                </mxCell>
                <mxCell id="138" value="3" style="text;html=1;strokeColor=none;fillColor=none;align=center;verticalAlign=middle;whiteSpace=wrap;rounded=0;labelBackgroundColor=none;strokeWidth=3;fontSize=15;fontColor=#000000;" vertex="1" parent="1">
                    <mxGeometry x="-45" y="200" width="60" height="30" as="geometry"/>
                </mxCell>
                <mxCell id="140" value="1" style="text;html=1;strokeColor=none;fillColor=none;align=center;verticalAlign=middle;whiteSpace=wrap;rounded=0;labelBackgroundColor=none;strokeWidth=3;fontSize=15;fontColor=#000000;" vertex="1" parent="1">
                    <mxGeometry y="155" width="60" height="30" as="geometry"/>
                </mxCell>
                <mxCell id="141" value="4" style="text;html=1;strokeColor=none;fillColor=none;align=center;verticalAlign=middle;whiteSpace=wrap;rounded=0;labelBackgroundColor=none;strokeWidth=3;fontSize=15;fontColor=#000000;" vertex="1" parent="1">
                    <mxGeometry x="30" y="104" width="60" height="30" as="geometry"/>
                </mxCell>
                <mxCell id="142" value="8" style="text;html=1;strokeColor=none;fillColor=none;align=center;verticalAlign=middle;whiteSpace=wrap;rounded=0;labelBackgroundColor=none;strokeWidth=3;fontSize=15;fontColor=#000000;" vertex="1" parent="1">
                    <mxGeometry x="-96" y="269" width="60" height="31" as="geometry"/>
                </mxCell>
                <mxCell id="143" value="5" style="text;html=1;strokeColor=none;fillColor=none;align=center;verticalAlign=middle;whiteSpace=wrap;rounded=0;labelBackgroundColor=none;strokeWidth=3;fontSize=15;fontColor=#000000;" vertex="1" parent="1">
                    <mxGeometry x="1" y="273" width="60" height="31" as="geometry"/>
                </mxCell>
                <mxCell id="144" value="19" style="text;html=1;strokeColor=none;fillColor=none;align=center;verticalAlign=middle;whiteSpace=wrap;rounded=0;labelBackgroundColor=none;strokeWidth=3;fontSize=15;fontColor=#000000;" vertex="1" parent="1">
                    <mxGeometry x="-97" y="354" width="60" height="31" as="geometry"/>
                </mxCell>
                <mxCell id="145" value="7" style="text;html=1;strokeColor=none;fillColor=none;align=center;verticalAlign=middle;whiteSpace=wrap;rounded=0;labelBackgroundColor=none;strokeWidth=3;fontSize=15;fontColor=#000000;" vertex="1" parent="1">
                    <mxGeometry x="120" y="209.5" width="60" height="31" as="geometry"/>
                </mxCell>
                <mxCell id="146" value="4" style="text;html=1;strokeColor=none;fillColor=none;align=center;verticalAlign=middle;whiteSpace=wrap;rounded=0;labelBackgroundColor=none;strokeWidth=3;fontSize=15;fontColor=#000000;" vertex="1" parent="1">
                    <mxGeometry x="94" y="369" width="60" height="31" as="geometry"/>
                </mxCell>
                <mxCell id="147" value="6" style="text;html=1;strokeColor=none;fillColor=none;align=center;verticalAlign=middle;whiteSpace=wrap;rounded=0;labelBackgroundColor=none;strokeWidth=3;fontSize=15;fontColor=#000000;" vertex="1" parent="1">
                    <mxGeometry x="154" y="333" width="60" height="26" as="geometry"/>
                </mxCell>
                <mxCell id="151" value="1" style="text;html=1;strokeColor=none;fillColor=none;align=center;verticalAlign=middle;whiteSpace=wrap;rounded=0;labelBackgroundColor=none;strokeWidth=3;fontSize=15;fontColor=#000000;" vertex="1" parent="1">
                    <mxGeometry x="34" y="320" width="60" height="31" as="geometry"/>
                </mxCell>
                <mxCell id="152" value="&lt;b&gt;&lt;font style=&quot;font-size: 18px;&quot;&gt;Теглови граф:&lt;/font&gt;&lt;/b&gt;" style="text;html=1;strokeColor=none;fillColor=none;align=center;verticalAlign=middle;whiteSpace=wrap;rounded=0;labelBackgroundColor=none;strokeWidth=3;fontSize=15;fontColor=#000000;" vertex="1" parent="1">
                    <mxGeometry x="-36" y="40" width="165" height="30" as="geometry"/>
                </mxCell>
                <mxCell id="153" value="&lt;b&gt;&lt;font style=&quot;font-size: 18px;&quot;&gt;Матрица на съседство:&lt;/font&gt;&lt;/b&gt;" style="text;html=1;strokeColor=none;fillColor=none;align=center;verticalAlign=middle;whiteSpace=wrap;rounded=0;labelBackgroundColor=none;strokeWidth=3;fontSize=15;fontColor=#000000;" vertex="1" parent="1">
                    <mxGeometry x="513.75" y="40" width="212.5" height="30" as="geometry"/>
                </mxCell>
                <mxCell id="154" value="Text" style="text;html=1;strokeColor=none;fillColor=none;align=center;verticalAlign=middle;whiteSpace=wrap;rounded=0;labelBackgroundColor=none;strokeWidth=3;fontSize=18;fontColor=none;noLabel=1;" vertex="1" parent="1">
                    <mxGeometry x="292" y="555" width="60" height="30" as="geometry"/>
                </mxCell>
                <mxCell id="155" value="Text" style="text;html=1;strokeColor=none;fillColor=none;align=center;verticalAlign=middle;whiteSpace=wrap;rounded=0;labelBackgroundColor=none;strokeWidth=3;fontSize=18;fontColor=none;noLabel=1;" vertex="1" parent="1">
                    <mxGeometry x="-277" y="225" width="60" height="30" as="geometry"/>
                </mxCell>
                <mxCell id="156" value="Text" style="text;html=1;strokeColor=none;fillColor=none;align=center;verticalAlign=middle;whiteSpace=wrap;rounded=0;labelBackgroundColor=none;strokeWidth=3;fontSize=18;fontColor=none;noLabel=1;" vertex="1" parent="1">
                    <mxGeometry x="857" y="260" width="60" height="30" as="geometry"/>
                </mxCell>
                <mxCell id="157" value="Text" style="text;html=1;strokeColor=none;fillColor=none;align=center;verticalAlign=middle;whiteSpace=wrap;rounded=0;labelBackgroundColor=none;strokeWidth=3;fontSize=18;fontColor=none;noLabel=1;" vertex="1" parent="1">
                    <mxGeometry x="299" y="-52" width="60" height="30" as="geometry"/>
                </mxCell>
            </root>
        </mxGraphModel>
    </diagram>
</mxfile>